<?xml version="1.0" encoding="UTF-8"?>
<!-- Generated by Pixelmator Pro 3.5.8 -->
<svg width="1024" height="1024" viewBox="0 0 1024 1024" xmlns="http://www.w3.org/2000/svg">
    <g id="Group">
        <g id="g1">
            <path id="Path" fill="#73a942" stroke="none" d="M 515.803955 667.025757 L 510.203491 690.547791 C 577.222534 765.780884 617.172424 827.386108 604.478149 840.080444 C 593.837097 850.721375 548.473389 824.212463 489.668396 775.674988 C 483.694427 770.821289 477.720642 765.780884 471.560089 760.553711 L 493.028534 671.692749 L 498.629028 648.170837 L 514.123779 583.765381 C 518.604187 583.018555 522.897766 581.151733 526.258118 577.604858 C 534.658875 569.204102 534.658875 555.389587 526.258118 546.988892 C 517.857422 538.588135 504.042847 538.588135 495.64212 546.988892 C 492.281982 550.349121 490.228302 554.82959 489.481781 559.12323 L 425.076294 574.617859 L 401.554108 580.218384 L 312.693268 601.686829 C 307.466278 595.526367 302.42572 589.55249 297.572021 583.578735 C 249.034561 524.773682 222.52562 479.596497 233.166534 468.768982 C 245.860931 456.074463 307.466278 496.024597 382.699219 563.04364 L 406.221161 557.443176 C 305.225952 467.462158 215.245056 416.497864 191.909744 439.646423 C 189.856171 441.700012 188.549362 444.126831 187.615952 446.927063 C 187.242676 448.047119 187.055923 449.353943 186.682541 450.473999 C 186.682541 450.660706 186.682541 450.660706 186.682541 450.660706 C 181.828842 482.023376 223.645782 553.522766 293.091583 634.729675 C 295.14505 637.343262 297.572021 639.956787 299.812103 642.570374 C 302.239075 645.370605 304.666046 647.984192 307.092773 650.784424 C 232.793137 595.526367 183.509033 530.560852 183.509033 530.560852 C 191.909744 598.886597 226.632645 673.932983 284.504242 740.205322 L 263.222382 761.487183 C 249.967972 774.741577 249.967972 796.023438 263.222382 809.277832 C 265.462585 811.518066 268.262848 813.384888 270.876434 814.878296 L 270.876434 893.658386 C 246.420959 900.752319 227.006042 919.980591 219.725372 944.249329 L 219.725372 944.249329 L 0 966.091187 L 216.365112 966.091187 L 291.971527 966.091187 L 367.577972 966.091187 L 583.943054 966.091187 L 364.77774 944.436035 L 364.77774 944.436035 C 357.49707 920.167297 338.082031 900.939026 313.626678 893.845032 L 313.626678 807.971069 L 332.855072 788.742798 C 426.382965 870.509705 537.832336 906.166138 622.586304 886.564453 C 622.586304 886.564453 622.772888 886.564453 622.772888 886.564453 C 623.893188 886.191101 625.19989 886.004456 626.319946 885.631042 C 629.120178 884.697632 631.547119 883.390869 633.600586 881.337402 C 656.749268 858.002075 605.784851 767.83429 515.803955 667.025757 Z M 369.071533 663.478821 C 359.177246 653.397949 349.84314 643.317139 340.882263 633.422852 C 335.468658 627.449097 330.05481 621.47522 324.827637 615.687988 L 415.928802 593.846252 L 439.450745 588.245789 L 485.187958 577.231445 L 456.998993 605.420532 L 442.624268 619.795044 L 383.819244 678.600098 C 378.778931 673.372986 373.925232 668.519287 369.071533 663.478821 Z M 440.19754 732.738037 C 430.303223 723.777283 420.222351 714.25647 410.141693 704.54895 C 405.101105 699.69519 400.060791 694.841431 395.207062 689.801025 L 454.012085 630.996033 L 468.386505 616.62146 L 496.575531 588.432434 L 485.561249 634.169678 L 479.960754 657.691589 L 458.118958 748.792786 C 452.145264 743.752319 446.171265 738.338501 440.19754 732.738037 Z"/>
            <g id="g2">
                <path id="path1" fill="#73a942" stroke="none" d="M 982.510315 451.40741 L 949.094116 391.108948 L 941.06665 376.547729 L 919.411499 337.531067 L 911.384277 322.969849 L 889.728943 283.953247 L 881.701721 269.391907 L 873.860901 255.204102 L 747.103638 360.679749 C 747.103638 360.679749 750.650452 372.627441 757.371216 393.90918 C 758.304626 396.709412 759.051147 399.696411 760.171448 402.683289 C 761.104858 405.856934 761.664795 409.030579 761.851379 412.204041 C 763.344971 435.539368 743.369995 451.40741 743.369995 451.40741 L 735.90271 438.3396 L 727.502014 423.965149 L 707.71344 389.802185 C 707.71344 389.802185 692.77887 398.949646 683.071472 404.55011 C 682.884827 404.55011 682.884827 404.55011 682.698181 404.736755 C 678.404419 407.163696 673.55072 406.043579 670.563843 403.056702 C 667.576721 400.069702 666.27002 395.402649 668.883667 390.922302 C 668.883667 390.922302 669.070251 390.735596 669.070251 390.54895 C 674.670776 380.841431 683.818237 365.906799 683.818237 365.906799 L 649.655273 346.11853 L 635.280762 337.717773 L 622.213013 330.250488 C 622.213013 330.250488 638.080994 310.275452 661.229675 311.76886 C 664.216553 311.955627 667.390076 312.515625 670.750488 313.449036 C 673.737366 314.382507 676.724182 315.315918 679.524475 316.249329 C 700.806335 322.783203 712.754028 326.516846 712.754028 326.516846 L 818.229675 199.759338 L 804.04187 191.91864 L 789.48053 183.891357 L 750.463806 162.236206 L 735.90271 154.208862 L 690.538757 129.006714 L 682.324707 124.526306 L 622.026367 91.110107 C 622.026367 91.110107 644.801514 59.187439 704.539978 78.415833 C 767.078613 98.577393 872.180969 132.180237 872.180969 132.180237 C 965.522217 38.838989 1023.580444 50.039917 1023.580444 50.039917 C 1023.580444 50.039917 1034.781372 108.098145 941.440125 201.439514 C 941.440125 201.439514 943.493591 207.97345 947.040649 218.800964 C 947.600525 220.667847 948.34729 222.721252 949.094116 224.961487 C 953.014404 237.282593 958.054932 253.33728 963.842041 270.885498 C 965.708862 276.485962 967.389038 282.273071 969.25592 288.060181 C 974.109619 303.181519 979.149902 318.862793 984.003601 333.984131 C 985.870483 339.77124 987.737305 345.558472 989.41748 351.158936 C 991.470947 357.506104 993.337769 363.293335 995.20459 369.080444 C 1014.432983 428.632202 982.510315 451.40741 982.510315 451.40741 Z"/>
                <path id="path2" fill="#73a942" stroke="none" d="M 371.684906 440.579834 L 668.323486 144.127991 L 675.604187 148.048279 L 377.472229 446.367065 Z"/>
                <path id="path3" fill="#73a942" stroke="none" d="M 413.315186 482.210022 L 721.90155 173.810547 L 729.181946 177.730835 L 419.102295 487.997253 Z"/>
                <path id="path4" fill="#73a942" stroke="none" d="M 775.479309 203.306335 L 782.76001 207.413391 L 694.459045 295.714233 C 693.525635 295.527466 685.685059 293.100647 685.685059 293.100647 L 775.479309 203.306335 Z"/>
                <path id="path5" fill="#73a942" stroke="none" d="M 777.906311 378.974609 L 866.020325 290.673767 L 870.127258 297.954407 L 780.519653 387.562073 Z"/>
                <path id="path6" fill="#73a942" stroke="none" d="M 585.623291 654.518066 L 895.702942 344.251709 L 899.809875 351.718994 L 591.223755 660.11853 Z"/>
                <path id="path7" fill="#73a942" stroke="none" d="M 627.253357 696.148315 L 925.385498 397.82959 L 929.492432 405.296875 L 632.853821 701.748779 Z"/>
            </g>
        </g>
    </g>
</svg>
